<svg version="1" xmlns="http://www.w3.org/2000/svg" width="1733.333" height="1733.333" viewBox="0 0 1300.000000 1300.000000"><path d="M640.5 118.7c-15.3.4-40.8 2.2-52.5 3.9-5.8.8-12.3 1.6-14.5 1.9-29.6 3.5-92 19.2-96.5 24.3-.9.9-3.7 3.6-6.3 5.9-3.7 3.5-5.4 4.3-8.5 4.3-2 0-4.7-.7-5.8-1.5-1.9-1.3-2.7-1.2-7 .5-2.7 1-6.2 2.5-7.9 3.3-1.6.8-6.9 3.1-11.7 5.2-4.8 2.1-8.4 4.3-8.1 4.8.3.6.1.7-.4.4-1.6-1-21.5 9.2-20.6 10.5.3.7.1.8-.5.4-1.1-.7-16.2 6.9-21.7 10.9-1.6 1.2-4.9 3.2-7.2 4.4-2.4 1.2-4.3 2.7-4.3 3.3 0 .6-.3.8-.7.5-.9-1-3.4 1.4-2.6 2.6.3.6.1.7-.6.3-.6-.4-1.4 0-1.7.9-.4.9-1.3 1.4-2.1 1.1-1.7-.7-11.2 5.9-44.2 30.9-1.4 1-2.9 2.4-3.3 3.1-.4.6-3.2 3-6.3 5.4-3.1 2.4-5.2 4.7-4.8 5.4.3.6.3.8-.2.4-1.1-1.1-3.6 1.2-2.8 2.5.3.6.1.7-.5.3-1-.6-18.6 15-21.4 18.9-.4.5 1 2.8 3.2 5l4 4 35.4-35.5c19.5-19.5 35.2-35.8 34.9-36.3-.2-.4 0-.6.6-.5.5.2 1.6-.6 2.4-1.7.9-1.1 1.9-1.7 2.3-1.3.4.4-.5 1.7-2 2.9-1.4 1.1-2.4 2.5-2 3 .3.5.2.8-.3.7-1-.4-5.8 4.3-5.8 5.7 0 .5-.4 1-1 1-1.3 0-7 5.7-7 7 0 .5-.4 1-1 1-1.3 0-7 5.7-7 7 0 .5-.5 1-1 1-1.4 0-7 5.6-7 7 0 .5-.4 1-1 1-1.3 0-7 5.7-7 7 0 .5-.4 1-1 1-1.3 0-7 5.7-7 7 0 .5-.4 1-1 1-1.3 0-7 5.7-7 7 0 .5-.4 1-1 1-1.3 0-7 5.7-7 7 0 .5-.4 1-1 1-1.8.1-7.7 6.4-7 7.5.3.6 1.1.7 1.7.4.6-.4.8-.3.5.3-.3.5 22.3 23.8 50.3 51.8 28 28 50.8 51 50.7 51.2-.2.1-23.2-22.6-51.2-50.7-28-28-51.3-50.8-51.9-50.7-.6.1-1-.4-.9-1.1.2-.6 0-1.2-.3-1.2-1 0-6.8 6.4-6.9 7.5 0 .5-.4 1-1 1-1.3 0-7 5.7-7 7 0 .5-.4 1-1 1-1.3 0-7 5.7-7 7 0 .5-.4 1-1 1-1.3 0-7 5.7-7 7 0 .5-.4 1-1 1-1.3 0-7 5.7-7 7 0 .5-.5 1-1 1-1.4 0-7 5.6-7 7 0 .5-.5 1-1 1-1.4 0-7 5.6-7 7 0 .5-.4 1-1 1-1.5 0-5.4 4.2-4.7 5.1.4.4.2.4-.4.1-1.4-.8-3.7 1.7-2.6 2.7.4.4.2.6-.3.4-1.5-.5-8.6 6.3-7.8 7.5.3.6.1.7-.6.3-.6-.4-1.4 0-1.7.8-.8 2.2-2.8 2-2-.2.5-1.4.4-1.4-.9.2-1.1 1.4-1.2 2.3-.4 3.3.6.7.9 1.4.5 1.4-.3.1-1.2.2-1.8.3-.7.1-1.2.7-1.1 1.4.2.7-.3 1.1-1 .9-.6-.1-1.1.6-1.1 1.5.1 1-.2 1.5-.7 1.3-1.1-.7-3.2 3.3-2.4 4.5.4.6.2.9-.4.8-.6-.2-2.1 1.5-3.4 3.7-1.2 2.2-2.5 4.2-2.8 4.5-.3.3-2.5 4.1-4.9 8.5-2.3 4.4-5.6 10.4-7.2 13.2-1.6 2.9-2.6 5.3-2.2 5.3.4 0 0 .8-.8 1.7-2.2 2.5-8 14.3-7.1 14.3.5 0 .3.4-.2.8-.6.4-2.5 4.1-4.3 8.2-1.8 4.1-3.7 8.3-4.3 9.2-.5 1-1.7 3.9-2.7 6.6-1.8 4.7-1.8 4.9 0 7.1 1.8 2.3 2.2 6.1 1 9.3-.4 1-3.3 4.4-6.5 7.6-5.3 5.5-6 6.7-9.1 16.8-5.5 17.2-12.8 45.5-12.9 50-.1 2.3-.5 4-.8 3.8-.4-.2-.9 1.3-1.3 3.4-2.5 15.3-5.6 35.6-6.1 40.2-.3 3-1 9.5-1.7 14.5-.7 5.5-1.2 24.1-1.2 48-.1 31.3.3 42 1.7 54 2.8 23.2 6.6 46.7 9.9 61 1.7 7.1 3.3 14.2 3.5 15.7.3 1.6.9 2.8 1.3 2.8.5 0 2.4-1.8 4.3-4 3.1-3.6 3.5-3.8 5.3-2.5 1.8 1.3 1.7 1.6-2.9 6.2-5.2 5.4-5.7 7.1-2.7 9.8 2 1.8 2.1 1.8 6.8-2.7 7.4-7.2 10.4-4 3.2 3.3-2.2 2.2-4 4.3-4 4.7 0 .3 1.7 2.3 3.7 4.4 3 3.1 3.5 4.2 2.7 5.5-1.7 2.8-2.7 2.4-7.8-3.4-2.6-3.1-4.6-4.7-4.3-3.7.3 1.1 1.1 3.9 1.8 6.3s2.1 4.8 3 5.4c1.2.8 1.5 1.5.8 2.3-1.2 1.4-.1 4.6 1.4 3.7.6-.3.7-.1.3.5-3 5 27.9 73.9 46.2 103.2 2.3 3.6 5.5 8.9 7.3 11.8 1.7 2.9 4.4 6.7 5.9 8.4 1.6 1.7 2.8 3.5 2.7 3.9-.2.8 6.8 11.1 17.1 24.7 8.8 11.7 11.2 14.3 12.3 13.6.5-.3.6.1.3.9s.1 2.1.8 2.8c1.2 1.2 6.9 7.7 16.8 19.2 1.3 1.5 3 2.5 3.7 2.3.7-.3 1.5 0 1.9.6.4.7.3.8-.4.4-1.9-1.2-1.3.7 1.2 3.8 1.3 1.6 2.8 2.6 3.4 2.2.6-.3 1.4-.1 1.8.5.4.8.3.9-.4.5s-1.2-.3-1.2.1c0 1.3 17.4 18 31 29.9 19.8 17.3 27.9 23.6 29.1 22.8.7-.4.9-.3.6.3-.7 1.2 2.1 3.5 13 10.9 3.7 2.6 8.4 5.8 10.3 7.2 1.9 1.4-12.5-13.5-32-33.1l-35.5-35.6-3.7 3.6c-2.1 2.1-3.8 3.3-3.8 2.8 0-.4 1.6-2.2 3.5-3.9l3.5-3.1-36.5-36.5c-20.1-20-36.5-36.7-36.5-37 0-.3 16.5 16 36.8 36.2l36.7 36.7 45.3-45.4 45.4-45.4-2.1-15.8c-2-15.5-8.2-64.1-14.1-109.8-1.6-12.7-4.6-36.3-6.7-52.5l-3.7-29.5-29.4-29.3c-25.9-25.9-29.5-29.2-31-28-1.5 1.2-1.6 1.1-.4-.4 1.4-1.7.9-3.8-.9-3.8-.6 0-.7.5-.3 1.2.4.6.3.8-.4.4-.6-.3-1.5-.1-1.9.6-.5.7-26.5 26.7-57.8 57.8l-57 56.5 58.4-58.6 58.4-58.7L227 600c-32-32-58-58.4-57.7-58.7.3-.3 26.7 25.7 58.7 57.7l58.2 58.2 48.9-48.8c26.9-26.9 49.3-49 49.7-49.2.4-.1-21.5 22-48.7 49.2l-49.4 49.4 29.8 29.6c16.3 16.4 29.9 29.5 30.2 29.2.3-.2 0-3.5-.6-7.3-.6-3.7-2.2-15.8-3.7-26.8-2.4-18.7-2.4-20-.8-21.2 1.7-1.2 23.2-9.9 33.4-13.5 7.3-2.5 30.4-8.3 41-10.2 30-5.4 75.1-5.8 107.9-1 12.8 1.8 42.8 7.8 52.9 10.5 9.3 2.5 42.1 12.8 44.2 13.9.8.4 6 2.5 11.5 4.5 5.5 2.1 11.7 4.6 13.7 5.6l3.7 1.9 6.3-2.9c21.1-9.6 59.2-21.6 87.5-27.6 63.8-13.5 123.2-12.3 175.8 3.7 11.5 3.4 37.2 13.8 40.2 16.2.1.1-.2 3-.7 6.6-3.3 26-6.1 47-6.5 50-.8 5.9-9.4 72.5-11.5 89.5-1.1 8.8-4 31.3-6.5 50-2.4 18.7-5.1 40.1-6 47.5-.9 7.4-2.7 21.4-4 31-1.4 9.6-3.4 24.9-4.4 34-3.6 30.4-4.3 35-5.5 35-.6 0-3.8-1.1-7.1-2.4-18.9-7.8-43.3-15.3-63-19.6-33.9-7.2-73.9-7.6-106-1-11.7 2.4-39.9 9.8-54.5 14.3-6.3 1.9-12.6 3.7-14 4-1.4.3-6.5 1.6-11.4 3-9.6 2.7-8.8 2.7-23.7-1.8-2.3-.7-2.3-.6.6 2.6l3 3.4-3.7-3.4c-3-2.8-6.3-4.2-18.5-7.7-38.9-11.4-58.7-15.8-80.7-17.9-23.9-2.3-42.8-1.7-66.6 2.1-10.2 1.6-42.3 9.4-48.6 11.8-2.2.8-9.5 3.5-16.4 6-6.9 2.4-14.1 5.1-16.1 6l-3.6 1.5-2.2-17.2c-1.2-9.5-3.3-25.3-4.7-35.2-1.3-9.9-2.6-19.4-2.8-21-.2-1.7-.4-3.2-.5-3.5 0-.2-2.8 2.2-6.1 5.5-3.2 3.2-5.6 6.3-5.3 6.8.3.6.2.7-.4.4-1.3-.8-8.6 6.7-7.6 7.8.5.4.3.5-.3.2-1.2-.7-8.7 6.5-7.9 7.6.3.4.2.5-.2.2-1-.8-8.3 6.7-7.6 7.8.3.6.2.7-.4.4-1.3-.8-8.6 6.7-7.6 7.8.5.4.3.5-.3.2-1.4-.8-8.7 6.6-7.7 7.8.5.4.3.5-.3.2-1.4-.8-8.7 6.6-7.7 7.8.5.4.3.5-.3.2-1.4-.8-8.7 6.6-7.7 7.8.5.4.3.5-.3.2-1.4-.8-8.7 6.6-7.7 7.8.5.4.3.5-.3.2-1.2-.7-8.7 6.5-7.9 7.6.3.4.2.5-.2.2-1-.8-6.3 4.6-5.7 5.7.3.5 1.3.3 2.2-.4 1.4-1 1.5-1 .4.2-1 1.2 4.9 7.6 35.5 38.3 25.7 25.7 38.5 37.8 42.3 40 3 1.7 8 4.8 11 6.8s8.6 5.3 12.3 7.3c3.8 2 8 4.4 9.3 5.2 1.3.9 2.4 1.3 2.4.9 0-.5.8-.1 1.8.7 1.6 1.5 23.5 12.4 33.7 16.8 2.8 1.2 6.2 2.8 7.8 3.6 1.5.8 3.2 1.2 3.7.9.6-.3 1-.3 1 .2 0 1.3 11.8 5.5 13.1 4.7.7-.4.9-.3.6.3-.8 1.3 7.8 4.7 9.4 3.7.7-.4.9-.3.6.3-.4.5 5 2.8 12.6 5.2 7.3 2.3 13.7 4.4 14.3 4.7.7.3 1-.4.7-1.8-.3-1.8.9-3.9 5.2-8.6 5.9-6.4 7.4-7.2 9.3-4.9.9 1 0 2.5-3.8 6.2-2.8 2.7-5 5.2-5 5.6 0 1 3.7 4.9 4.7 4.9.5 0 2.9-2 5.3-4.5 3.3-3.4 4.7-4.2 5.7-3.3 1.8 1.5 1.7 1.8-2.2 6.3-1.9 2.1-3.3 4-3.2 4.1.1.2 7.6 2.1 16.7 4.3 29.7 7.3 63.1 11.7 99.5 13 104.7 4 208.7-23.4 297-78.2 16.3-10.1 18.7-11.8 24.5-17.1 3-2.8 4.3-3.8 3-2.2l-2.5 3 3-2.2c1.7-1.3 4.1-3 5.5-3.9 12.3-8.3 39.2-30.8 55.5-46.5l8-7.7-2.9-3c-2.5-2.6-3.2-2.9-4.5-1.8-1.4 1-1.4 1-.4-.4.7-.9.9-2 .5-2.4-.4-.5-.2-.5.4-.2 1.3.8 71.1-69.3 74.9-75.3 24.1-37.8 38.4-65.5 51.5-99.5 18.9-48.9 29.8-95.7 34.6-148.5 1.7-19.6 1.9-62.4.4-83-1.8-22.5-6.6-56.9-10.3-73.3l-2.3-9.7-4.7 4.5c-2.7 2.5-5.6 4.5-6.5 4.5-1 0-4.4-2.7-7.7-6-5.9-5.9-5.9-6-6.1-12.3l-.2-6.4 6.9-7.1c3.8-4 7.8-7.2 8.8-7.2 1.7 0 1.4-1.5-3.4-15.8-8.1-24.1-23.2-60.7-29.1-70.2-1.1-1.9-2.5-4.6-2.9-5.9-.4-1.4-2.9-6.2-5.6-10.7-2.7-4.6-4.9-8.5-4.9-8.8 0-.9-14.2-24-17.9-29.1-2-2.7-3.6-5.2-3.6-5.5-.1-.8-10.4-15.5-15.8-22.4-2.6-3.3-6.7-8.5-9-11.5-2.3-2.9-6.2-7.7-8.7-10.5-2.5-2.9-7.4-8.5-10.9-12.6-14.8-17.1-41.3-42.3-63.1-60-11.2-9.1-34.7-26.2-35.3-25.7-.2.1-2.1-1.2-4.3-3-4.5-3.5-22.9-15-31.4-19.6-3-1.6-6-3.3-6.5-3.7-3.9-3.2-45.9-22.7-63.2-29.5-7.4-2.9-29.1-10.5-30-10.5-.1 0 0 .8.3 1.7.5 1.7.5 1.7-.6.1-1.5-2.4-4-3.7-10.8-5.5-3.1-.8-7.9-2.1-10.7-2.8-4.4-1.2-5.2-1.2-7 .3-1.1.9-1.4 1-.7.2 1.8-2.1 1.5-2.7-1.5-3.3-1.6-.2-8.9-1.8-16.3-3.5s-18-3.8-23.5-4.7c-5.5-.8-12.7-2-16-2.5-14.2-2.3-34.3-4.1-51-4.6-9.9-.2-19.3-.6-21-.7-1.6-.1-7.5-.1-13 0zm154.7 26c2.4 2.8 2.8 5 1.3 7-1.2 1.4-1.6 1.5-2.3.5-.7-1-1.2-.9-2.3.4-.9 1.2-1 1.5-.1 1 .6-.4 1.2-.2 1.2.3 0 .6-1.1 1.1-2.5 1.1-1.8 0-2.3-.4-1.9-1.5.5-1.1.2-1.3-1-.9-1.7.7-2.2-1.1-.6-2.1.6-.3 1-1.1 1-1.7 0-.6-.6-.6-1.5.2-.9.7-1.8 1-2.1.7-.6-.6 1.6-4.8 3.1-5.9 1.8-1.4 6.2-.8 7.7.9zm-20.5 3.5c-.3.8-.6.5-.6-.6-.1-1.1.2-1.7.5-1.3.3.3.4 1.2.1 1.9zm32.2 6.1c-1.8 1.5-3.5 2.4-3.8 2.1-.3-.4 0-.9.7-1.1.6-.3 1.2-.9 1.2-1.5s-.9-.3-2 .7c-1.6 1.4-1.7 2-.8 2.7 1 .6.4 1.6-2 3.8-1.8 1.8-3.7 2.8-4.4 2.4-.6-.4-.8-.3-.5.3.3.5-.5 2.2-1.9 3.9-2.4 2.8-2.4 2.8-.9.2.9-1.5 1.4-3.2 1-3.8-.9-1.5 4.3-8.2 5.7-7.4.6.4.8.2.4-.4-1-1.7 4.2-5.1 7.5-4.9l2.9.2-3.1 2.8zm-31.2 2.9c-.3.8-.6.5-.6-.6-.1-1.1.2-1.7.5-1.3.3.3.4 1.2.1 1.9zm-242.4 15.3c.4 0 .7.4.8 1 .1 1.8 3.1 4.5 4.3 3.8.6-.3.8-.2.3.2-1 1.1 6.3 8.6 7.6 7.8.6-.3.7-.2.4.4-.7 1.1 6.6 8.6 7.6 7.8.4-.3.5-.2.2.2-.8 1.1 6.7 8.3 7.9 7.6.6-.3.8-.2.3.2-1 1.1 6.3 8.6 7.6 7.8.6-.3.7-.2.4.4-.3.5 1.1 2.6 3.1 4.6l3.7 3.6 10-3.4c5.5-1.9 10.9-3.4 12-3.5 1.4 0 1.6-.3.7-.8-.8-.5 0-.8 2-.8 1.8 0 8.5-.9 14.8-1.9 8.9-1.5 16.2-2 32.5-2 27.4.1 41.5 2.2 64.3 9.6 7.8 2.6 9.5 2.9 11 1.8 1.4-1.1 1.5-1.1.5 0s1.1 2.5 11.5 7.6c13.6 6.6 26.5 14.3 34.6 20.7 47.2 37.1 72.3 88.9 70.3 145.3-.9 23-3.5 36-12.1 59-7.5 19.8-24.6 44.7-42.1 61.3l-10.7 10 7.8 3.7c15 6.9 37.1 23.4 52.9 39.4l6.9 7.1h-16.9c-29.3 0-62 4-94 11.4-6 1.4-11.8 2.6-12.7 2.6-1 0-5.3-1.6-9.5-3.6-10.6-4.9-22.7-8.8-35.3-11.5-12.3-2.6-34.6-3.1-47-.9-11.4 1.9-27 6.6-35.6 10.5l-7.7 3.6 3.4 3.7 3.4 3.7-3.6-3.3c-3.2-2.9-4.1-3.3-7.2-2.7-2.4.5-8.5-.5-19.8-3-31.4-7.1-50.5-9.4-83.9-10.4l-22.5-.6 8.1-8c10.5-10.4 14.2-13.7 24.1-21.2 9.5-7.1 26.9-17.7 32-19.4 2.8-.9 3.2-1.3 2.2-2.5-1.6-2-3-1.8-2.2.3.3 1 .3 1.5-.1 1.1-.4-.3-.9-1.3-1-2.2-.1-.9-3.8-5.1-8.2-9.4-7.5-7.4-16.7-17.8-18.9-21.4-.5-.9-2.5-3.9-4.4-6.7l-3.4-5.1-2.3 2.1c-1.9 1.8-2.6 2-3.9.9-1.3-1.1-1.2-1.6 1-4.2 2.4-2.8 2.4-2.9.7-6.6-.9-2-1.8-3.9-1.9-4.1-.2-.3-1.4.5-2.6 1.8-1.5 1.3-3 1.9-4 1.5-2.3-.8-2.2-1.3.9-4.5 2.4-2.5 2.5-3 1.4-6.4l-1.2-3.7-5.2 5.1c-4.1 4-5.4 4.9-6.4 3.9-1.9-1.9-1.5-2.6 4.4-8.1l5.5-5.3-2-4.6c-2.9-6.8-5.7-16.9-7.8-28.3-2.8-15.2-2.5-49.1.5-63.5 3.9-18.4 9.9-34.9 18-49.5 2.5-4.4 4.5-8.6 4.5-9.2 0-.7.2-1.1.5-.8.3.2 2.7-2.8 5.5-6.8 2.7-4 7.4-10 10.4-13.4 3.2-3.7 5.1-6.7 4.7-7.4-.4-.8-.3-.9.4-.5 1.3.8 16.4-13.3 15.7-14.5-.3-.4.1-.6.8-.5 1.4.1 4.3-1.8 11.5-7.7 2.6-2 5-3.7 5.4-3.7.5 0 3.4-1.7 6.6-3.9 6-4 20.1-11.5 24-12.6 1.2-.3 2-.9 1.8-1.3-.2-.4.7-.8 2.1-.8 1.3-.1 2.7-.5 3-.8.7-.7-43.3-44.8-44.3-44.4-.4.2-.8-.5-1-1.5-.1-1.1.2-1.4.9-1 .7.4 1.5.8 2 .8zM758 184.3c0 .2-1.5 1.6-3.2 3.3l-3.3 2.9 2.9-3.3c2.8-3 3.6-3.7 3.6-2.9zm-8 8c0 .2-1.5 1.6-3.2 3.3l-3.3 2.9 2.9-3.3c2.8-3 3.6-3.7 3.6-2.9zm-8 8c0 .2-1.5 1.6-3.2 3.3l-3.3 2.9 2.9-3.3c2.8-3 3.6-3.7 3.6-2.9zm-8 8c0 .2-1.5 1.6-3.2 3.3l-3.3 2.9 2.9-3.3c2.8-3 3.6-3.7 3.6-2.9zm289.7 70.7l3.8-3.5-3.5 3.8-3.4 3.7 34.9 35.3 35 35.2-35.3-35-35.2-35-51.3 51-51.2 51 51-51.2 51-51.3-36.5-36.7-36.5-36.8 36.7 36.5 36.8 36.4 3.7-3.4zM215 356.4c0 .2-.8 1-1.7 1.7-1.6 1.3-1.7 1.2-.4-.4 1.3-1.6 2.1-2.1 2.1-1.3zm246.3 113.4c3.3 3.1 3.3 4.3.3 10.7-1.8 3.9-2.1 5.5-1.3 7.2 1.4 3.2 2.5 2.9 7.8-2.3 4.1-4 4.7-4.3 5.9-2.9 1.2 1.4.4 2.5-5.5 8.5l-6.9 7-2.7-2.8c-5.6-5.8-6.2-8.8-2.8-15.4 2.3-4.5 2.4-7.4.3-8.2-2.3-.9-2-1-6.8 3.4-2.9 2.6-4.9 3.8-6 3.4-2.4-.9-2-2.2 1.8-5.8 7.5-7.4 10.5-7.9 15.9-2.8zm-13.2 21.1c9.8 9.4 10.1 9.9 8.7 12-1.5 2.1-1.7 2-10.4-6.4-4.8-4.7-9.3-8.5-10-8.5-.6 0-1.7-.7-2.4-1.5-1-1.2-.8-1.8 1.1-3.5 1.3-1 2.5-1.9 2.6-2 .2 0 4.8 4.4 10.4 9.9zm-22.6 8c.3.5 2.1.7 3.9.4 3.2-.5 4 0 9.5 5.5 3.4 3.4 6.1 6.9 6.1 7.9s-5.1 6.9-11.4 13.2c-13.3 13.2-13.3 13.3-21.4 4.7-3.7-3.9-5.2-6.3-5.2-8.3 0-1.5-.3-4.4-.6-6.4-.6-3.3-.2-3.9 6.6-10.7 6.9-6.9 10.9-8.9 12.5-6.3zM1073 600.5l-55.5 55.5 52 52.2 52 52.3-52.2-52-52.3-52-32.2 32-32.3 32 32-32.3 32-32.2-55-55.3-55-55.2 55.3 55 55.2 55 55.3-55.3c30.3-30.3 55.4-55.2 55.7-55.2.3 0-24.5 25-55 55.5zM500 584c32.6 2.5 64.3 9 105.3 21.6 2.1.6 2.1.5-.3-2.2-2.2-2.6-2.1-2.6 1 .3 2.5 2.3 8.4 5.1 20.5 9.6 9.4 3.5 18.4 7.1 20.2 8 3 1.6 3.3 1.6 9.5-1.2 3.4-1.6 13.5-5.4 22.3-8.6 9.2-3.4 17.3-6.9 19-8.4 2.1-1.8 2.4-2 1.2-.5-1.6 1.9-.3 1.7 13.5-2.3 16.7-4.9 47-11.3 64.3-13.8 63.1-8.8 126.3-.8 175.6 22.1l7.6 3.6-.5 5.1c-.2 2.9-.8 5.6-1.2 6-.4.5-3.8-.7-7.6-2.6-16.9-8.5-50.8-18-79.9-22.4-17.2-2.6-67.3-2.6-86.5 0-14.8 2-43.6 7.1-51.5 9.2-34.6 9.1-53.6 15.5-58.5 19.9-3 2.7-3.2 2.8-1.1.4l2.4-2.8-5.9 2.4c-3.2 1.3-8.7 3.5-12.1 5-3.4 1.4-6.8 2.6-7.6 2.6-.7 0-5.5-1.8-10.5-3.9-5.1-2.2-9.2-3.7-9.2-3.4 0 .3-.6.1-1.3-.5-2.4-2-26.9-10.1-47.2-15.7-21.5-5.8-43.6-10.2-66-13.2-17.4-2.2-65.1-2.5-81.5-.5-28.2 3.5-62.3 12.7-83.3 22.4-4.8 2.3-8.9 3.9-9.1 3.7-.2-.2-.7-3-1-6.1l-.7-5.8 7.5-3.5c4.1-1.9 7.8-3.5 8.2-3.5.3 0 2-.6 3.7-1.4 14.7-6.2 38.2-13 54.2-15.6 3.9-.6 7.7-1.4 8.5-1.7.8-.2 3.8-.7 6.5-.9 2.8-.3 8.4-.8 12.5-1.3 10.9-1.2 43.4-1.3 59-.1zm216 1.3c0 .2-1 1.2-2.2 2.3l-2.3 1.9 1.9-2.3c1.8-2.1 2.6-2.7 2.6-1.9zm-118.4 9.9l2.9 3.3-3.2-2.9c-3.1-2.8-3.8-3.6-3-3.6.2 0 1.6 1.5 3.3 3.2zm110.4-1.8c0 .2-.8 1-1.7 1.7-1.6 1.3-1.7 1.2-.4-.4 1.3-1.6 2.1-2.1 2.1-1.3zm-204.5 16.1c44.7 3.9 93.5 15.9 133.6 32.8 12.2 5.1 15.6 5.3 20.2 1.1 1.7-1.6 2.4-1.9 1.4-.8-1.5 1.9-.4 1.6 8-1.8 37.8-15.3 80.1-25.8 124.8-31 14.4-1.7 60-1.6 72.5 0 33.9 4.6 58.4 11 84.3 22.2l11.2 4.9-.4 5.8c-.2 3.2-.4 5.9-.6 6.1-.1.1-2.4-.7-5.1-1.9-30.6-13.2-53.5-19.6-83.9-23.6-19.4-2.5-63.8-2.5-85 0-38.7 4.7-81.2 15.6-118 30.4-14.6 5.9-16.3 6.4-19.5 5.4-3-.9-3.8-.8-6 1.2l-2.5 2.2 2.3-2.6 2.3-2.7-4.3-1.5c-2.4-.8-9.2-3.4-15.3-5.7-16.5-6.4-36.9-12.6-57.5-17.5-36-8.5-55.9-10.9-93-10.9-28.9-.1-44.8 1.3-65 5.5-20.1 4.2-42.5 11.4-59.3 19.1-3.7 1.7-6.9 2.9-7.1 2.7-.3-.2-.6-3.1-.8-6.3l-.3-6 11.5-4.8c47.3-19.9 96.6-27.1 151.5-22.3zm134.5 26c1.9 1.9 3.2 3.5 2.9 3.5-.3 0-2-1.6-3.9-3.5s-3.2-3.5-2.9-3.5c.3 0 2 1.6 3.9 3.5zm31-3.2c0 .2-1.2 1.4-2.7 2.8l-2.8 2.4 2.4-2.8c2.3-2.5 3.1-3.2 3.1-2.4zm-23.4 10.9l2.9 3.3-3.2-2.9c-3.1-2.8-3.8-3.6-3-3.6.2 0 1.6 1.5 3.3 3.2zm15.9 15.8c1 1.1 1.6 2 1.3 2-.3 0-1.3-.9-2.3-2-1-1.1-1.6-2-1.3-2 .3 0 1.3.9 2.3 2zm-23.5 4.4c0 .2-.8 1-1.7 1.7-1.6 1.3-1.7 1.2-.4-.4 1.3-1.6 2.1-2.1 2.1-1.3zM972.5 972c24.7 24.7 44.8 45 44.5 45-.3 0-20.8-20.3-45.5-45-24.7-24.8-44.8-45-44.5-45 .3 0 20.8 20.2 45.5 45zM672 1003.3c0 .2-1 1.2-2.2 2.3l-2.3 1.9 1.9-2.3c1.8-2.1 2.6-2.7 2.6-1.9zm-28.4 9.9l2.9 3.3-3.2-2.9c-1.8-1.7-3.3-3.1-3.3-3.3 0-.8.8-.1 3.6 2.9zm19.4-.8c0 .2-.8 1-1.7 1.7-1.6 1.3-1.7 1.2-.4-.4 1.3-1.6 2.1-2.1 2.1-1.3zm-12.9 7.3c1.3 1.6 1.2 1.7-.3.4-1-.7-1.8-1.5-1.8-1.7 0-.8.8-.3 2.1 1.3zm4.6 1c-1.6 1.6-1.6 1.8 0 3.7 1.7 2 1.7 2.1-.2.3-1.9-1.6-2.1-1.5-7.5 3.5-3.7 3.6-3.3 3 1.5-2 3.8-3.9 7.2-7.2 7.4-7.2.3 0-.2.8-1.2 1.7zm333.3 30.8c-15.7 15.7-28.7 28.5-29 28.5-.3 0 12.3-12.8 28-28.5s28.7-28.5 29-28.5c.3 0-12.3 12.8-28 28.5zM659.5 1029c1 1.1 1.6 2 1.3 2-.3 0-1.3-.9-2.3-2-1-1.1-1.6-2-1.3-2 .3 0 1.3.9 2.3 2zm-18.5 5.3c0 .2-1.7 1.9-3.7 3.8l-3.8 3.4 3.4-3.8c3.3-3.4 4.1-4.2 4.1-3.4zm26.5 2.7c1 1.1 1.6 2 1.3 2-.3 0-1.3-.9-2.3-2-1-1.1-1.6-2-1.3-2 .3 0 1.3.9 2.3 2zm-34.5 5.3c0 .2-1.7 1.9-3.7 3.8l-3.8 3.4 3.4-3.8c3.3-3.4 4.1-4.2 4.1-3.4zm42.5 2.7c1 1.1 1.6 2 1.3 2-.3 0-1.3-.9-2.3-2-1-1.1-1.6-2-1.3-2 .3 0 1.3.9 2.3 2zm-50.5 5.3c0 .2-1.7 1.9-3.7 3.8l-3.8 3.4 3.4-3.8c3.3-3.4 4.1-4.2 4.1-3.4zm58.5 2.7c1 1.1 1.6 2 1.3 2-.3 0-1.3-.9-2.3-2-1-1.1-1.6-2-1.3-2 .3 0 1.3.9 2.3 2zm-66.5 5.3c0 .2-1.7 1.9-3.7 3.8l-3.8 3.4 3.4-3.8c3.3-3.4 4.1-4.2 4.1-3.4zm74.5 2.7c1 1.1 1.6 2 1.3 2-.3 0-1.3-.9-2.3-2-1-1.1-1.6-2-1.3-2 .3 0 1.3.9 2.3 2zm-82.5 5.3c0 .2-1.7 1.9-3.7 3.8l-3.8 3.4 3.4-3.8c3.3-3.4 4.1-4.2 4.1-3.4zm90.5 2.7c1 1.1 1.6 2 1.3 2-.3 0-1.3-.9-2.3-2-1-1.1-1.6-2-1.3-2 .3 0 1.3.9 2.3 2zm-98.5 5.3c0 .2-1.7 1.9-3.7 3.8l-3.8 3.4 3.4-3.8c3.3-3.4 4.1-4.2 4.1-3.4zm106.5 2.7c1 1.1 1.6 2 1.3 2-.3 0-1.3-.9-2.3-2-1-1.1-1.6-2-1.3-2 .3 0 1.3.9 2.3 2zm-114.5 5.3c0 .2-1.7 1.9-3.7 3.8l-3.8 3.4 3.4-3.8c3.3-3.4 4.1-4.2 4.1-3.4zm122.5 2.7c1 1.1 1.6 2 1.3 2-.3 0-1.3-.9-2.3-2-1-1.1-1.6-2-1.3-2 .3 0 1.3.9 2.3 2zm-130.5 5.3c0 .2-1.7 1.9-3.7 3.8l-3.8 3.4 3.4-3.8c3.3-3.4 4.1-4.2 4.1-3.4zm138.5 2.7c1 1.1 1.6 2 1.3 2-.3 0-1.3-.9-2.3-2-1-1.1-1.6-2-1.3-2 .3 0 1.3.9 2.3 2zm-146.5 5.3c0 .2-1.7 1.9-3.7 3.8l-3.8 3.4 3.4-3.8c3.3-3.4 4.1-4.2 4.1-3.4zm154.5 2.7c1 1.1 1.6 2 1.3 2-.3 0-1.3-.9-2.3-2-1-1.1-1.6-2-1.3-2 .3 0 1.3.9 2.3 2zm-162.5 5.3c0 .2-1.7 1.9-3.7 3.8l-3.8 3.4 3.4-3.8c3.3-3.4 4.1-4.2 4.1-3.4zm170.5 2.7c1 1.1 1.6 2 1.3 2-.3 0-1.3-.9-2.3-2-1-1.1-1.6-2-1.3-2 .3 0 1.3.9 2.3 2zm-178.5 5.3c0 .2-1.7 1.9-3.7 3.8l-3.8 3.4 3.4-3.8c3.3-3.4 4.1-4.2 4.1-3.4zm187 3.2c1.3 1.4 2.1 2.5 1.8 2.5-.2 0-1.5-1.1-2.8-2.5-1.3-1.4-2.1-2.5-1.8-2.5.2 0 1.5 1.1 2.8 2.5zm-195 4.8c0 .2-1.7 1.9-3.7 3.8l-3.8 3.4 3.4-3.8c3.3-3.4 4.1-4.2 4.1-3.4zm202.5 2.7c1 1.1 1.6 2 1.3 2-.3 0-1.3-.9-2.3-2-1-1.1-1.6-2-1.3-2 .3 0 1.3.9 2.3 2zm-210.5 5.3c0 .2-1.5 1.6-3.2 3.3l-3.3 2.9 2.9-3.3c2.8-3 3.6-3.7 3.6-2.9z"/><path d="M788 145.5c0 .8.2 1.5.4 1.5s.6-.7 1-1.5c.3-.8.1-1.5-.4-1.5-.6 0-1 .7-1 1.5zM793 147.6c0 .8.5 1.2 1 .9.6-.3 1 .4 1 1.6 0 1.2.3 2 .6 1.6.9-.9-.5-5.7-1.6-5.7-.6 0-1 .7-1 1.6zM797.5 159.1c-.4.6-.5 1.2-.2 1.5.2.3.7-.2 1-1.1.7-1.7.1-2-.8-.4zM641.5 277.7c-20 2.3-25.6 3.7-38.5 9.1-41.3 17.4-68 56-68 98.2 0 46.3 31.2 86.9 78.5 102.3 13.5 4.4 19 5.1 37 5.1 17.7-.1 25.5-1.2 38-5.6 27.3-9.5 48.2-26.1 61.9-49.3 10.1-16.9 14.6-33.4 14.6-52.6 0-29.3-13.4-58.3-36.2-78.4-12.2-10.7-29.8-20.2-46-24.9-11-3.2-31.2-5.1-41.3-3.9zm3 7.3c2.7 2.7 4.7 5 4.4 5-.3 0-2.7-2.3-5.4-5-2.7-2.8-4.7-5-4.4-5 .3 0 2.7 2.2 5.4 5zm16.5-3.7c0 .2-1 1.2-2.2 2.3l-2.3 1.9 1.9-2.3c1.8-2.1 2.6-2.7 2.6-1.9zm-9 9c0 .1-2.8 2.9-6.2 6.2l-6.3 6 6-6.3c5.5-5.8 6.5-6.7 6.5-5.9zm8 10.2c1.9 1.9 3.2 3.5 2.9 3.5-.3 0-2-1.6-3.9-3.5s-3.2-3.5-2.9-3.5c.3 0 2 1.6 3.9 3.5zm-22 3.8c0 .2-1.5 1.6-3.2 3.3l-3.3 2.9 2.9-3.3c2.8-3 3.6-3.7 3.6-2.9zm30 4.2c1.9 1.9 3.2 3.5 2.9 3.5-.3 0-2-1.6-3.9-3.5s-3.2-3.5-2.9-3.5c.3 0 2 1.6 3.9 3.5zm-38 3.8c0 .2-1.5 1.6-3.2 3.3l-3.3 2.9 2.9-3.3c2.8-3 3.6-3.7 3.6-2.9zm46 4.2c1.9 1.9 3.2 3.5 2.9 3.5-.3 0-2-1.6-3.9-3.5s-3.2-3.5-2.9-3.5c.3 0 2 1.6 3.9 3.5zm-54 3.8c0 .2-1.5 1.6-3.2 3.3l-3.3 2.9 2.9-3.3c2.8-3 3.6-3.7 3.6-2.9zm62 4.2c1.9 1.9 3.2 3.5 2.9 3.5-.3 0-2-1.6-3.9-3.5s-3.2-3.5-2.9-3.5c.3 0 2 1.6 3.9 3.5zm-70 3.8c0 .2-1.5 1.6-3.2 3.3l-3.3 2.9 2.9-3.3c2.8-3 3.6-3.7 3.6-2.9zm78 4.2c1.9 1.9 3.2 3.5 2.9 3.5-.3 0-2-1.6-3.9-3.5s-3.2-3.5-2.9-3.5c.3 0 2 1.6 3.9 3.5zm-86 3.8c0 .2-1.5 1.6-3.2 3.3l-3.3 2.9 2.9-3.3c2.8-3 3.6-3.7 3.6-2.9zm94 4.2c1.9 1.9 3.2 3.5 2.9 3.5-.3 0-2-1.6-3.9-3.5s-3.2-3.5-2.9-3.5c.3 0 2 1.6 3.9 3.5zm-102 3.8c0 .2-1.5 1.6-3.2 3.3l-3.3 2.9 2.9-3.3c2.8-3 3.6-3.7 3.6-2.9zm110 4.2c1.9 1.9 3.2 3.5 2.9 3.5-.3 0-2-1.6-3.9-3.5s-3.2-3.5-2.9-3.5c.3 0 2 1.6 3.9 3.5zm-118 3.8c0 .2-1.5 1.6-3.2 3.3l-3.3 2.9 2.9-3.3c2.8-3 3.6-3.7 3.6-2.9zm125.6 3.9l2.9 3.3-3.2-2.9c-3.1-2.8-3.8-3.6-3-3.6.2 0 1.6 1.5 3.3 3.2zM582 360.3c0 .2-1.5 1.6-3.2 3.3l-3.3 2.9 2.9-3.3c2.8-3 3.6-3.7 3.6-2.9zm142 4.2c1.9 1.9 3.2 3.5 2.9 3.5-.3 0-2-1.6-3.9-3.5s-3.2-3.5-2.9-3.5c.3 0 2 1.6 3.9 3.5zm-150 3.8c0 .2-1.5 1.6-3.2 3.3l-3.3 2.9 2.9-3.3c2.8-3 3.6-3.7 3.6-2.9zm158 4.2c1.9 1.9 3.2 3.5 2.9 3.5-.3 0-2-1.6-3.9-3.5s-3.2-3.5-2.9-3.5c.3 0 2 1.6 3.9 3.5zm-166 3.8c0 .2-1.5 1.6-3.2 3.3l-3.3 2.9 2.9-3.3c2.8-3 3.6-3.7 3.6-2.9zm174 4.2c1.9 1.9 3.2 3.5 2.9 3.5-.3 0-2-1.6-3.9-3.5s-3.2-3.5-2.9-3.5c.3 0 2 1.6 3.9 3.5zm-182 3.8c0 .2-1.5 1.6-3.2 3.3l-3.3 2.9 2.9-3.3c2.8-3 3.6-3.7 3.6-2.9zm-8 8c0 .2-1.5 1.6-3.2 3.3l-3.3 2.9 2.9-3.3c2.8-3 3.6-3.7 3.6-2.9zM414.1 506.1c-6 5.9-7.1 7.5-6.5 9.3.4 1.1.6 3.7.6 5.7-.1 3.2.6 4.3 5.8 9.3 3.2 3.1 6.3 5.6 6.8 5.6 1.5 0 4.4-3.8 3.8-4.9-1.8-2.9 8.9-14.1 13.4-14.1 1.5 0 3.5-.9 4.5-2 2.1-2.3 1.9-2.6-5.6-10.2-4-4-5.1-4.6-8.5-4.5-2.1.1-4.6-.2-5.5-.6-1.1-.6-3.6 1.3-8.8 6.4zm14.3 5.8c1.5 1.7 1.7 2.7 1 5.3-.8 2.7-1.7 3.5-4.8 4.3-3.5.8-4 .7-6.2-1.8-3.7-4.3-2.6-8.6 2.7-10.6 2.7-1 4.5-.3 7.3 2.8zM463.2 152.4c-1.8.6-3 1.5-2.6 1.9 1.3 1.3 4.1.7 5.9-1.3 2-2.3 1.4-2.4-3.3-.6zM266.3 283.2c-9.9 10.1-12.5 13.3-11.5 14.3.4.5.2.5-.5.1s-3.1 1.7-6 5.1c-2.6 3.1-6.1 7-7.6 8.7-1.5 1.6-2.5 3.6-2.2 4.3.2.8.1 1.2-.4.9-1.5-1-13.5 13.9-12.5 15.5.3.5.1.8-.5.7-1.4-.4-15.3 19-14.6 20.3.4.5.2.8-.3.7-.9-.3-1.2.2-1.2 1.9 0 .3 3.9-3.3 8.6-8 4.8-4.8 9.1-8.4 9.7-8 .5.3.7.2.4-.4-.8-1.3 6.7-8.6 7.8-7.6.4.5.5.3.1-.4-.8-1.5 6.1-8.6 7.6-7.7.6.4.8.3.5-.3-.7-1.1 6.6-8.6 7.6-7.8.4.3.5.2.2-.2-.8-1 6.7-8.3 7.8-7.6.6.3.7.2.4-.4-.7-1.1 6.6-8.6 7.6-7.8.4.3.5.2.2-.2-.8-1.1 6.7-8.3 7.9-7.6.6.3.8.2.3-.2-.4-.5.9-2.6 3-4.7l3.7-3.8-4-4.1-4-4-8.1 8.3zM152.6 463c-3 7.5-3.1 7.6-.2 4.3 1.9-2.2 2.6-4.1 2.4-6-.3-2.6-.4-2.5-2.2 1.7zM1149.8 506.7l-6.7 6.8.4 6.3c.3 6.1.4 6.3 5.9 11.7 3 3 6.2 5.5 7 5.5 1.8 0 4.8-3.9 4-5.2-.3-.5 0-1.5.6-2.3.7-.8.9-1.5.6-1.5-.4 0 .5-1.1 1.9-2.5 2.6-2.7 3.2-5 1.5-6-.5-.3-1-.2-1 .3 0 1.2-4.4 3.1-6.4 2.8-2.8-.4-5.6-3.4-5.6-6 0-2.7 4.2-6.6 6.9-6.6 1 0 2.3.6 3 1.2 1.1 1.1 1.2.7.6-2.2-1-5-2.8-8.4-4.5-8.8-.8-.1-4.5 2.8-8.2 6.5z"/><path d="M1162.3 516.5c-.3.9-.3 1.8-.1 2.1.3.3.8-.4 1.1-1.6.6-2.3-.1-2.7-1-.5zM1052.7 986.8l-32.8 32.8 3.1 2.9 3.1 3 7.7-8c10.2-10.6 14.8-15.8 26.2-29.5 11.8-14.3 26.8-34 25.8-34-.2 0-15.1 14.8-33.1 32.8z"/></svg>